<svg version="1" xmlns="http://www.w3.org/2000/svg" width="898.667" height="898.667" viewBox="0 0 674.000000 674.000000"><path d="M310.5 3.6c-78.7 6.1-149.6 38-206.3 92.8-23.1 22.3-43.2 48.4-60.7 78.9-18.3 31.8-32.2 74.1-38.2 116.2-2.2 16-2.5 70-.5 85.5 6 44.8 15.4 75.8 34.2 113 15.7 30.9 35 57 62 84 63.6 63.5 145.1 97 236 97 76.4 0 145.7-23.5 205-69.6 13.3-10.4 39.9-35.9 50.8-48.9 41.3-49.1 65.7-103.5 74.7-166.5 3.9-26.8 3.8-73.1 0-99.8-10-68.9-42.4-133.6-92.3-183.9C520.8 47.5 457.8 15.9 382 5.5c-11-1.5-59.7-2.8-71.5-1.9zM338 98.2c0 1.2 3.2 12.5 7.1 25.2 4.3 14 6.8 23.5 6.3 24.2-.5.7-2.6 3.2-4.7 5.7l-3.8 4.5 1 21.9c1.5 31.3 4.2 76.4 4.7 79 .4 2.3.7 2.3 14.9 2.3 9.2 0 14.6-.4 15-1.1.4-.6.7-6.3.6-12.7-.1-12 1.9-36.2 3.8-44.2 1.6-6.9 5.9-18.9 8-22.6 1.1-1.9 1.7-3.5 1.3-3.8-.4-.2-2.8-.7-5.4-1.1-2.7-.4-4.8-.9-4.8-1.2 0-.2 4.4-5.9 9.7-12.6 9.7-12.2 24.4-27.7 26.2-27.7.5 0-.5 3.3-2.3 7.2-1.9 4-5 12.2-7.1 18.3-13.5 40.4-15.3 77.3-5 107.5 3.7 11 3.4 11.3-10 12.5-13.8 1.2-43.5 8.7-43.5 11 0 .6 1.2 2.2 2.6 3.6 1.4 1.3 3.5 3.6 4.5 5.1 1.8 2.5 1.9 3 .5 5.6-.8 1.5-3.3 4.6-5.5 6.7l-4.1 4v13.6c0 7.6-.4 13.9-1 14.5-.6.6-1.1 26.1-1.2 70.4l-.3 69.5-9-11-9-10.9-.3-59.3c-.1-37.7-.6-59.3-1.2-59.3s-1-5.6-1-14.3c0-13.1-.2-14.3-2-15.5-2.5-1.5-8-9-8-10.9 0-.8 2.1-3.6 4.6-6.3 2.5-2.7 4.3-5.3 4-5.8-1.5-2.5-30.2-9.6-43.3-10.7-13.5-1.2-13.7-1.5-9.5-14.7 5-15.6 6.6-27.8 5.9-45.7-1-26.5-7.4-53.7-17.8-76-2.2-4.6-3.7-8.6-3.4-8.9 1-1 16.9 16.2 26.3 28.3l9.3 12-5.1.8c-5.8 1-5.8.4-1.5 10.6 6.3 15.1 9.6 34.1 9.9 57.6.1 8.3.5 15.6 1 16.3.5.9 4.8 1.2 15.1 1.2h14.4l.5-5.3c1-10.3 3.7-61.5 4.1-78.5.2-9.5.7-17.7 1-18.2.3-.6-1.7-3.4-4.5-6.4l-5.1-5.4 2.9-8.9c1.5-4.8 5-16.3 7.7-25.6 4.6-15.5 6.5-19.9 6.5-14.5z"/></svg>